<svg xmlns="http://www.w3.org/2000/svg" xmlns:xlink="http://www.w3.org/1999/xlink" width="1120" height="131" viewBox="0 0 1120 131"><defs><style>.a{fill:#243f5c;}.b{clip-path:url(#a);}.c{clip-path:url(#b);}.d{fill:#fe7f2d;}.e{fill:#fff;}.f{fill:#252422;}</style><clipPath id="a"><rect class="a" width="1120" height="131"/></clipPath><clipPath id="b"><rect class="a" width="1120" height="346"/></clipPath></defs><rect class="a" width="1120" height="131"/><g class="b"><g class="c"><g transform="translate(718 -32)"><path class="d" d="M271.4,344.815c-12.1-.306-23.484-4.015-34.324-8.843-15.841-7.063-32.2-12.6-48.712-17.63-9.939-3.027-20.333-4.713-30.624-6.372-13.854-2.235-27.847-3.606-41.7-5.845a136.3,136.3,0,0,0-26.89-1.589c-17.326.634-34.491-1.738-51.729-2.682-8.014-.44-16.106-1.741-23.656-5.084C5.255,293.007.3,286.977.039,277.3A148.325,148.325,0,0,1,3.3,244.533c2.975-15.086,8.05-29.553,12.777-44.141a119.457,119.457,0,0,1,13.161-27.142c5.486-8.67,10-17.986,15.829-26.4a134.11,134.11,0,0,1,16.8-19.64c6.147-5.967,14.226-9.075,22.393-11.507a18.23,18.23,0,0,1,5.9-.3,124.976,124.976,0,0,1,22.9,3.38c11.539,2.689,22.832,6.718,34.773,7.467,5.011.317,10.056.264,15.081.162,8.453-.173,16.9-.566,25.354-.776,9.222-.23,17.827-2.4,25.336-7.975q19.946-14.8,39.8-29.728c9.618-7.272,19.26-14.53,28.612-22.141,11.725-9.542,23-19.643,34.773-29.12,10.076-8.113,20.1-16.292,31.341-22.9,6.421-3.777,13.423-6.01,20.066-9.16,3.313-1.574,7.3-1.989,11.039-2.332C389.448,1.34,399.667.45,409.9.045a72.584,72.584,0,0,1,26.487,4.372,198.8,198.8,0,0,1,39.155,17.989c7.73,4.7,15.322,9.284,21.372,16.15,3.086,3.5,6.8,6.454,9.841,9.993,13.33,15.488,16.816,33.273,12.489,53.078a180.1,180.1,0,0,1-9.331,29.323c-5.9,14.526-11.485,29.205-18.009,43.45-4.713,10.279-10.73,19.962-16.162,29.916-9.482,15.219-20.948,28.894-32.163,42.746-8.485,10.483-16.932,21-25.646,31.284-4.3,5.077-9.164,9.672-13.779,14.477a63.1,63.1,0,0,0-4.495,4.657c-4.292,5.533-9.83,9.882-14.09,15.508-4.5,5.945-11.067,9.661-17.449,13.431-14.474,8.541-30.155,13.226-46.679,15.964A224.822,224.822,0,0,1,284.58,345C280.19,345,275.8,344.925,271.4,344.815Z"/></g><g transform="translate(866 32)"><path class="e" d="M7.707,18c.43-3.781-2.03-4.919-4.375-6.405C.117,9.553-.74,7.039.625,4.195a6.9,6.9,0,0,1,2.9-3.082c5.5-2.631,13.119-.4,16.42,4.651,1.306,2.008,1.51,4.269-.031,6.158C17.088,15.391,13.7,18.1,7.707,18Z" transform="translate(218 6)"/><path class="e" d="M10.89,19a61.236,61.236,0,0,1-5.814-2.6C1.927,14.6-.328,12.091.039,7.987A8.77,8.77,0,0,1,7.181.51C7.9.352,8.611.166,9.339.078c3.485-.426,5.713.89,6.824,4.24a13.516,13.516,0,0,1,.364,8.171C15.768,15.1,14.871,16.132,10.89,19Z" transform="translate(91 139)"/><path class="e" d="M8.858,19.737c-.6-.274-2.16-.5-2.806-1.365C3.375,14.776.719,11.057.059,6.531A5.333,5.333,0,0,1,3.694.659C6.475-.193,9.3-.644,11.333,2.046c1.959,2.585,3.813,5.256,5.517,8.006,1.411,2.27,1.65,4.886,0,7.051C15.1,19.4,12.553,20.555,8.858,19.737Z" transform="translate(0 96)"/><path class="e" d="M15.741,7.965l-1.7,3.951c-1.411,3.3-8.938,4.441-10.885.959A35.993,35.993,0,0,1,.233,6.911,4.684,4.684,0,0,1,3.311.962,28.374,28.374,0,0,1,10.626,0C14.875.006,16.726,2.637,15.741,7.965Z" transform="translate(192 59)"/><path class="e" d="M14.813,11.314c-.752,2.827-2.252,4.928-5.417,5.548a5.67,5.67,0,0,1-6.427-2.78A52.2,52.2,0,0,1,.405,7.975,5.74,5.74,0,0,1,1.673,1.769C3.44-.121,5.685-.273,7.985.282,12.437,1.35,15.851,6.969,14.813,11.314Z" transform="translate(334 176)"/><path class="e" d="M2.308,14.718c-.373-1.435-.428-3.258-1.275-4.6C-1.171,6.612.5,4.122,2.82,1.729,4.77-.282,7.164-.394,9.626.653,12.791,2,14.874,4.165,14.994,7.792a7.31,7.31,0,0,1-6.1,7.915A11.387,11.387,0,0,1,6.464,16,7.153,7.153,0,0,1,2.308,14.718Z" transform="translate(235 99)"/><path class="e" d="M12,4.1a93.131,93.131,0,0,1-1.806,9.179A12.12,12.12,0,0,1,7.432,17.6a4.146,4.146,0,0,1-4.761,1.082A4.223,4.223,0,0,1,.008,14.529a33.265,33.265,0,0,1,.414-4.488A20.9,20.9,0,0,0,.734,5.556c-.218-1.719-1.13-3.54.9-4.6s4.251-1.43,6.331-.1A51.758,51.758,0,0,1,12,4.1Z" transform="translate(49)"/><path class="e" d="M9.853,0c2.668,1.7,3.62,4.237,4.057,7.062A6.966,6.966,0,0,1,10.9,14.168,5.527,5.527,0,0,1,4.189,13.5,14.006,14.006,0,0,1,.71,8.822C-1.02,5,.482,1.831,4.436.741A37.342,37.342,0,0,1,9.853,0Z" transform="translate(60 76)"/><path class="e" d="M11.68,10.111c-.19.824-.293,1.315-.425,1.8-1.229,4.628-4.035,5.4-7.278,1.963a22.549,22.549,0,0,1-2.812-3.448A6.557,6.557,0,0,1,4.805.332c3.7-1.2,6.933.928,7.171,4.867A35.962,35.962,0,0,1,11.68,10.111Z" transform="translate(154 105)"/><path class="e" d="M9.011.14c1.1,4.115,2.011,7.507,2.989,11.154a37.3,37.3,0,0,1-4,3.882,4.724,4.724,0,0,1-7.1-2.42c-.975-2.8-1.576-5.537.454-8.284C3.282,1.853,5.112-.622,9.011.14Z" transform="translate(288 70)"/><path class="e" d="M3.872,13.74C2.6,11.3,1.282,8.742,0,6.264,3.168.318,6.332-1.218,10.818.909a3.428,3.428,0,0,1,2.058,4.214c-.6,2.684-1.429,5.321-3.52,7.181A5.369,5.369,0,0,1,3.872,13.74Z" transform="translate(327 117)"/><path class="e" d="M12.959,6.565c-.8,3.961-6.569,7.4-10.238,6.19a3.187,3.187,0,0,1-1.3-.762c-1.764-1.9-1.908-7.4-.294-9.4C3.314-.11,8.154-.91,10.815,1.2A5.824,5.824,0,0,1,12.959,6.565Z" transform="translate(127 33)"/><path class="e" d="M7.847,10.253c-7.3.082-7.3.082-7.847-4.408.8-1.15,1.687-.294,2.57-.127A3.258,3.258,0,0,0,6.286,4.075C8.005,1.268,8.062,1.3,12.047,0a11.062,11.062,0,0,1,1.4,3.012,59.393,59.393,0,0,1,.557,7.9c0,2.043-.883,3.7-3.871,4.093C9.385,13.453,8.6,11.824,7.847,10.253Z" transform="translate(185 175)"/><path class="e" d="M12.915,2.334c.447,2.316-.941,3.908-2.529,4.952A41.265,41.265,0,0,1,3.16,10.849C1.481,11.528-.21,9.808.021,7.9.45,4.36,2.7,2.11,5.676.685A5.577,5.577,0,0,1,12.915,2.334Z" transform="translate(246 163)"/></g><g transform="translate(-104 -91)"><path class="f" d="M243.614,335.668c-6.863-1.714-13.965-2.445-20.889-3.939a373.238,373.238,0,0,1-57.658-16.952c-5.918-2.319-11.631-5.135-16.588-9.451-4.539-3.951-10.121-6.723-14.542-10.784-8.516-7.828-16.714-16.028-24.709-24.4-7.039-7.368-13.559-15.232-20.435-22.758-2.207-2.416-4.928-4.351-7.225-6.69-6.906-7.025-13.662-14.2-20.591-21.2-3.282-3.316-6.893-6.305-10.22-9.58-3.2-3.146-6.2-6.494-9.327-9.713-5.547-5.706-10.868-11.668-16.754-17-8.059-7.306-14.367-15.929-19.793-25.187a33.259,33.259,0,0,1-4.728-20.37c.44-4.479.7-8.866,2.486-13.165a35.258,35.258,0,0,1,9.783-13.213c6.658-5.772,13.459-11.4,20.428-16.787,8.2-6.345,16.592-12.453,25.012-18.511,6.034-4.34,12.5-8.108,18.326-12.7,10.988-8.654,22.159-17.086,32.162-26.964,8.11-8.01,16.509-15.763,25.2-23.132C140.011,7.7,147.177,3.01,155.638,1.081c3.17-.718,6.5-.741,9.752-1.081,8.958.274,17.492,2.555,25.943,5.059,5.793,1.717,11.4,4.059,17.158,5.91,7.887,2.539,15.868,4.8,23.76,7.323,9.048,2.9,18.163,5.634,27.021,9.034,7.889,3.029,16.012,3.778,24.282,4.346,12.282.844,24.269,3.575,36.179,6.536,6.7,1.667,13.308,3.744,19.868,5.9a59.245,59.245,0,0,1,24.548,15.841,100.721,100.721,0,0,0,9.532,8.786c5.735,4.635,9.742,10.651,13.918,16.561.492.694.873,1.6,1.547,2.01,6.2,3.742,9.617,9.794,12.983,15.8,2.613,4.668,4.871,9.548,7.057,14.438a18.837,18.837,0,0,1,1.7,6.488c.428,7.915,1.6,15.776.885,23.777a152.942,152.942,0,0,0-.3,19.207c.692,18.623-1.8,36.942-4.54,55.279-1.94,12.991-3.087,26.1-5.045,39.089a108,108,0,0,1-4.842,20.677,53.353,53.353,0,0,1-8.572,14.74,70.26,70.26,0,0,1-31.112,22.556c-5.522,2.021-10.942,4.414-16.6,5.956-7.655,2.089-15.445,3.753-23.253,5.189-11.9,2.184-23.846,4.127-35.807,5.97A120.2,120.2,0,0,1,263.422,338,81.222,81.222,0,0,1,243.614,335.668Z"/></g></g></g></svg>