<svg xmlns="http://www.w3.org/2000/svg" width="521" height="345" viewBox="0 0 521 345"><defs><style>.a{fill:#fe7f2d;}</style></defs><path class="a" d="M271.4,344.815c-12.1-.306-23.484-4.015-34.324-8.843-15.841-7.063-32.2-12.6-48.712-17.63-9.939-3.027-20.333-4.713-30.624-6.372-13.854-2.235-27.847-3.606-41.7-5.845a136.3,136.3,0,0,0-26.89-1.589c-17.326.634-34.491-1.738-51.729-2.682-8.014-.44-16.106-1.741-23.656-5.084C5.255,293.007.3,286.977.039,277.3A148.325,148.325,0,0,1,3.3,244.533c2.975-15.086,8.05-29.553,12.777-44.141a119.457,119.457,0,0,1,13.161-27.142c5.486-8.67,10-17.986,15.829-26.4a134.11,134.11,0,0,1,16.8-19.64c6.147-5.967,14.226-9.075,22.393-11.507a18.23,18.23,0,0,1,5.9-.3,124.976,124.976,0,0,1,22.9,3.38c11.539,2.689,22.832,6.718,34.773,7.467,5.011.317,10.056.264,15.081.162,8.453-.173,16.9-.566,25.354-.776,9.222-.23,17.827-2.4,25.336-7.975q19.946-14.8,39.8-29.728c9.618-7.272,19.26-14.53,28.612-22.141,11.725-9.542,23-19.643,34.773-29.12,10.076-8.113,20.1-16.292,31.341-22.9,6.421-3.777,13.423-6.01,20.066-9.16,3.313-1.574,7.3-1.989,11.039-2.332C389.448,1.34,399.667.45,409.9.045a72.584,72.584,0,0,1,26.487,4.372,198.8,198.8,0,0,1,39.155,17.989c7.73,4.7,15.322,9.284,21.372,16.15,3.086,3.5,6.8,6.454,9.841,9.993,13.33,15.488,16.816,33.273,12.489,53.078a180.1,180.1,0,0,1-9.331,29.323c-5.9,14.526-11.485,29.205-18.009,43.45-4.713,10.279-10.73,19.962-16.162,29.916-9.482,15.219-20.948,28.894-32.163,42.746-8.485,10.483-16.932,21-25.646,31.284-4.3,5.077-9.164,9.672-13.779,14.477a63.1,63.1,0,0,0-4.495,4.657c-4.292,5.533-9.83,9.882-14.09,15.508-4.5,5.945-11.067,9.661-17.449,13.431-14.474,8.541-30.155,13.226-46.679,15.964A224.822,224.822,0,0,1,284.58,345C280.19,345,275.8,344.925,271.4,344.815Z" transform="translate(0 0)"/></svg>